<svg xmlns="http://www.w3.org/2000/svg" viewBox="0 0 200 280" width="200" height="280"><rect x="2" y="2" width="196" height="276" rx="20" fill="#fff" stroke="#d6dbe1" stroke-width="3"/><rect x="12" y="12" width="176" height="256" rx="13" fill="#1B2A4A"/><ellipse cx="86" cy="122" rx="64" ry="104" fill="#fff" opacity=".13" transform="rotate(-18 100 140)"/><path d="M12 220q40 28 176 12V255a13 13 0 0 1-13 13H25a13 13 0 0 1-13-13Z" fill="#121C33" opacity=".3"/><g transform="translate(48 70) scale(0.867)"><g stroke="#fff" stroke-width="5">
    <path d="M60 60 60 16A44 44 0 0 1 104 60Z" fill="#E04A3F"/>
    <path d="M60 60h44A44 44 0 0 1 60 104Z" fill="#F2B22E"/>
    <path d="M60 60v44A44 44 0 0 1 16 60Z" fill="#2FA355"/>
    <path d="M60 60H16A44 44 0 0 1 60 16Z" fill="#2D6FD8"/>
  </g>
  <circle cx="60" cy="60" r="44" fill="none" stroke="#16181D" stroke-width="7"/></g><text x="100" y="216" text-anchor="middle" dominant-baseline="central" font-family="-apple-system, 'SF Pro Display', 'Helvetica Neue', Inter, 'Segoe UI', Roboto, Arial, sans-serif" font-weight="800" font-size="56" fill="none" stroke="#16181D" stroke-width="10" stroke-linejoin="round">+4</text><text x="100" y="216" text-anchor="middle" dominant-baseline="central" font-family="-apple-system, 'SF Pro Display', 'Helvetica Neue', Inter, 'Segoe UI', Roboto, Arial, sans-serif" font-weight="800" font-size="56" fill="#fff">+4</text><g transform="translate(25 29) scale(0.3)" fill="#fff" stroke="#16181D" stroke-width="23.33"><circle cx="50" cy="50" r="38"/></g><g transform="translate(145 29) scale(0.3)" fill="#fff" stroke="#16181D" stroke-width="23.33"><path d="M50 8 92 82H8Z" stroke-linejoin="round"/></g><g transform="translate(25 221) scale(0.3)" fill="#fff" stroke="#16181D" stroke-width="23.33"><rect x="12" y="12" width="76" height="76" rx="8"/></g><g transform="translate(145 221) scale(0.3)" fill="#fff" stroke="#16181D" stroke-width="23.33"><path d="M50 6 94 50 50 94 6 50Z" stroke-linejoin="round"/></g></svg>
