<svg xmlns="http://www.w3.org/2000/svg" viewBox="0 0 200 280" width="200" height="280"><defs><pattern id="p" width="16" height="16" patternUnits="userSpaceOnUse" patternTransform="rotate(45)"><rect width="16" height="16" fill="#12623f"/><rect width="8" height="16" fill="#0f5536"/></pattern></defs><rect x="2" y="2" width="196" height="276" rx="18" fill="#fff" stroke="#d6dbe1" stroke-width="3"/><rect x="14" y="14" width="172" height="252" rx="11" fill="url(#p)"/><rect x="14" y="14" width="172" height="252" rx="11" fill="none" stroke="#2ee08c" stroke-opacity=".35" stroke-width="2"/><circle cx="100" cy="140" r="34" fill="#0b3f28" stroke="#2ee08c" stroke-opacity=".5" stroke-width="2"/><path d="M50 4C38 22 8 38 8 60c0 14 11 23 24 23 7 0 13-3 16-8-1 9-5 15-11 21h26c-6-6-10-12-11-21 3 5 9 8 16 8 13 0 24-9 24-23C92 38 62 22 50 4Z" fill="#2ee08c" transform="translate(78 118) scale(.44)"/></svg>
